<svg id="Capa_1" enable-background="new 0 0 512.002 512.002" height="512" viewBox="0 0 512.002 512.002" width="512" xmlns="http://www.w3.org/2000/svg"><g><g><path d="m437.091 432.012v-48.249l51.353-39.156c8.139-24.389 12.557-50.48 12.557-77.605 0-135.31-109.69-245-245-245s-245 109.69-245 245 109.69 245 245 245c71.746 0 136.286-30.843 181.094-79.989z" fill="#41416b"/></g><g><circle cx="256.001" cy="252.002" fill="#313159" r="200"/></g><g><g><path d="m482.131 119.255c-1.408 0-2.779.159-4.099.452 1.46-3.52 2.27-7.378 2.27-11.427 0-16.483-13.362-29.845-29.845-29.845-2.697 0-5.309.364-7.794 1.035-2.492-21.368-20.653-37.953-42.69-37.953s-40.198 16.584-42.69 37.953c-2.485-.671-5.097-1.035-7.794-1.035-16.483 0-29.845 13.362-29.845 29.845 0 4.048.81 7.906 2.27 11.427-1.32-.293-2.691-.452-4.099-.452-10.422 0-18.87 8.449-18.87 18.87 0 10.422 8.449 18.87 18.87 18.87h164.316c10.422 0 18.87-8.449 18.87-18.87s-8.449-18.87-18.87-18.87z" fill="#616196"/></g><g><g><path d="m399.973 129.224c0-.584.024-1.163.06-1.738-.02 0-.04.001-.06.001-23.74 0-42.984-19.245-42.984-42.984 0-1.703.102-3.381.295-5.032-2.485-.671-5.097-1.035-7.794-1.035-16.483 0-29.845 13.362-29.845 29.845 0 4.048.81 7.906 2.27 11.427-1.32-.293-2.691-.452-4.099-.452-10.422 0-18.87 8.449-18.87 18.87 0 10.422 8.449 18.87 18.87 18.87h109.93c-15.339 0-27.773-12.434-27.773-27.772z" fill="#515181"/></g></g></g><g><path d="m415.899 243.839c-6.746 0-12.981 2.169-18.061 5.838-.238-18.322-12.214-33.804-28.756-39.279 5.704-9.85 8.986-21.278 8.986-33.479 0-36.959-29.961-66.92-66.92-66.92-34.693 0-63.217 26.401-66.584 60.208-5.29-1.305-10.817-2.011-16.511-2.011-37.947 0-68.709 30.762-68.709 68.709 0 3.336.251 6.612.71 9.821-3.963-1.849-8.38-2.888-13.041-2.888-17.059 0-30.888 13.829-30.888 30.888s13.829 30.888 30.888 30.888h268.888c17.059 0 30.888-13.829 30.888-30.888-.002-17.058-13.831-30.887-30.89-30.887z" fill="#7070ab"/></g><g><g><path d="m281.456 254.284c0-5.652.927-11.084 2.614-16.17-23.465-10.399-39.842-33.878-39.842-61.196 0-2.266.116-4.504.336-6.712-5.29-1.305-10.817-2.011-16.511-2.011-37.947 0-68.709 30.762-68.709 68.709 0 3.336.251 6.612.71 9.821-3.963-1.849-8.38-2.888-13.041-2.888-17.059 0-30.888 13.829-30.888 30.888s13.829 30.888 30.888 30.888h185.775c-28.351.002-51.332-22.98-51.332-51.329z" fill="#616196"/></g></g><g><path d="m488.451 344.602c-10.93 32.76-28.59 62.45-51.36 87.41-41.06 27.78-90.58 43.99-143.88 43.99-142 0-257.21-115.21-257.21-257.21 0-29.83 5.08-58.48 14.43-85.12 19.24-54.89 56.57-101.28 104.84-132.01 8.28-5.27 18.54 2.87 15.31 12.14-3.01 8.63-5.57 17.48-7.66 26.5-4.32 18.7-6.61 38.17-6.61 58.18.01 141.96 115.26 257.21 257.21 257.21 26.07 0 51.23-3.88 74.93-11.09z" fill="#fff442"/></g><g><path d="m358.532 425.06c-142 0-257.21-115.21-257.21-257.21 0-29.83 5.08-58.48 14.43-85.12 10.691-30.5 26.974-58.37 47.61-82.393-2.559-.672-5.426-.37-8.091 1.325-48.27 30.73-85.6 77.12-104.84 132.01-9.35 26.64-14.43 55.29-14.43 85.12 0 142 115.21 257.21 257.21 257.21 53.3 0 102.82-16.21 143.88-43.99 7.761-8.508 14.913-17.578 21.423-27.12-30.737 12.984-64.521 20.168-99.982 20.168z" fill="#ffe400"/></g><g><circle cx="156.263" cy="256.002" fill="#ffe400" r="20.861"/></g><g><circle cx="193.029" cy="358.395" fill="#ffe400" r="20.861"/></g><g><circle cx="349.512" cy="425.002" fill="#ffe400" r="20.861"/></g><g><circle cx="303.365" cy="405.807" fill="#ffe400" r="34.195"/></g><g><path d="m303.364 425.002c-10.584 0-19.194-8.611-19.194-19.195s8.61-19.195 19.194-19.195 19.195 8.611 19.195 19.195-8.611 19.195-19.195 19.195z" fill="#fdca00"/></g><g><circle cx="96.001" cy="194.473" fill="#ffe400" r="34.195"/></g><g><path d="m96.001 213.668c-10.584 0-19.194-8.611-19.194-19.195s8.61-19.195 19.194-19.195 19.195 8.611 19.195 19.195-8.611 19.195-19.195 19.195z" fill="#fdca00"/></g></g></svg>