<svg id="Capa_1" enable-background="new 0 0 512 512" height="512" viewBox="0 0 512 512" width="512" xmlns="http://www.w3.org/2000/svg"><g><g><path d="m489.349 192.184c-31.625-98.715-124.134-170.184-233.349-170.184s-201.724 71.469-233.349 170.184l42.094 182.914h382.511z" fill="#ff7e3e"/></g><g><circle cx="256" cy="252" fill="#f2682c" r="200"/></g><g><g><path d="m362.787 101.041c-1.831 0-3.612.207-5.328.587 1.898-4.575 2.951-9.59 2.951-14.852 0-21.424-17.368-38.792-38.792-38.792-3.506 0-6.9.473-10.131 1.345-3.239-27.773-26.844-49.329-55.487-49.329s-52.248 21.556-55.487 49.33c-3.23-.872-6.625-1.345-10.131-1.345-21.424 0-38.792 17.368-38.792 38.792 0 5.262 1.053 10.277 2.951 14.852-1.716-.38-3.498-.587-5.328-.587-13.546 0-24.527 10.981-24.527 24.527s10.981 24.527 24.527 24.527h213.573c13.546 0 24.527-10.981 24.527-24.527.001-13.547-10.98-24.528-24.526-24.528z" fill="#fff9e1"/></g><g><g><path d="m256 113.998c0-.76.031-1.512.078-2.26-.026 0-.052.001-.078.001-30.856 0-55.87-25.014-55.87-55.87 0-2.213.133-4.395.383-6.541-3.23-.872-6.625-1.345-10.131-1.345-21.424 0-38.792 17.368-38.792 38.792 0 5.262 1.053 10.277 2.951 14.852-1.716-.38-3.498-.587-5.328-.587-13.546 0-24.527 10.981-24.527 24.527s10.981 24.527 24.527 24.527h142.884c-19.936.002-36.097-16.16-36.097-36.096z" fill="#fff2b9"/></g></g></g><g><path d="m497.198 310.218c2.497-14.029 3.802-28.471 3.802-43.218 0-26.095-4.095-51.23-11.651-74.816-23.388 4.731-40.997 25.399-40.997 50.182 0 9.335 2.511 18.079 6.875 25.615-12.657 4.19-21.82 16.035-22.002 30.054-3.887-2.807-8.658-4.467-13.819-4.467-13.052 0-23.633 10.581-23.633 23.633s10.581 23.633 23.633 23.633h54.224z" fill="#fff2b9"/></g><g><path d="m14.802 310.218c-2.497-14.029-3.802-28.471-3.802-43.218 0-26.095 4.095-51.23 11.651-74.816 23.388 4.731 40.997 25.399 40.997 50.182 0 9.335-2.511 18.079-6.875 25.615 12.657 4.19 21.82 16.035 22.002 30.054 3.887-2.807 8.658-4.467 13.819-4.467 13.052 0 23.633 10.581 23.633 23.633s-10.581 23.633-23.633 23.633h-54.224z" fill="#fff2b9"/></g><g><g><path d="m403.571 242.168c-24.204-2.593-32.52-33.628-12.855-47.976 5.743-4.19 7.402-12.036 3.848-18.193-3.555-6.157-11.179-8.643-17.679-5.764-22.258 9.856-44.977-12.863-35.121-35.12 2.879-6.5.393-14.125-5.764-17.679-6.157-3.555-14.003-1.895-18.193 3.848-14.348 19.665-45.382 11.349-47.976-12.855-.757-7.069-6.722-12.429-13.831-12.429-7.109 0-13.074 5.36-13.831 12.429-2.593 24.204-33.628 32.52-47.976 12.855-4.19-5.743-12.036-7.402-18.193-3.848-6.157 3.555-8.642 11.179-5.764 17.679 9.856 22.258-12.863 44.977-35.121 35.12-6.5-2.878-14.125-.393-17.679 5.764-3.555 6.157-1.895 14.003 3.848 18.193 19.665 14.348 11.349 45.382-12.855 47.976-7.069.758-12.429 6.723-12.429 13.832 0 7.109 5.36 13.074 12.429 13.831 24.204 2.593 32.52 33.628 12.855 47.976-5.743 4.19-7.402 12.036-3.848 18.193 3.555 6.157 11.179 8.643 17.679 5.764 22.258-9.857 44.977 12.863 35.121 35.121-2.878 6.5-.393 14.125 5.764 17.679 6.157 3.555 14.003 1.895 18.193-3.848 14.348-19.665 45.382-11.349 47.976 12.855.757 7.069 6.722 12.429 13.831 12.429 7.109 0 13.074-5.36 13.831-12.429 2.593-24.204 33.628-32.52 47.975-12.855 4.19 5.743 12.036 7.402 18.193 3.848 6.157-3.555 8.642-11.179 5.764-17.679-9.856-22.258 12.863-44.977 35.121-35.121 6.5 2.879 14.125.393 17.679-5.764 3.555-6.157 1.895-14.003-3.848-18.193-19.665-14.348-11.349-45.382 12.855-47.976 7.07-.757 12.43-6.722 12.43-13.831 0-7.109-5.36-13.074-12.429-13.832z" fill="#fff442"/></g><g><circle cx="256" cy="256" fill="#ffe400" r="109.091"/></g><g><circle cx="298.357" cy="213.643" fill="#fff442" r="29.189"/></g><g><path d="m197.818 256c0-51.484 35.666-94.631 83.636-106.098-8.167-1.952-16.689-2.993-25.455-2.993-60.249 0-109.091 48.842-109.091 109.091s48.843 109.091 109.092 109.091c8.766 0 17.287-1.041 25.455-2.993-47.971-11.467-83.637-54.614-83.637-106.098z" fill="#fdca00"/></g></g><g><path d="m37.177 377.28 27.227 33.768h383.193l27.223-33.763c10.517-20.827 18.157-43.354 22.378-67.066-26.864 1.589-28.155 19.877-57.452 19.877-30.627 0-30.627-20-61.254-20-30.626 0-30.626 20-61.251 20s-30.625-20-61.249-20c-30.623 0-30.623 20-61.246 20-30.624 0-30.624-20-61.249-20s-30.625 20-61.25 20c-29.294 0-30.585-18.288-57.445-19.877 4.22 23.71 11.859 46.235 22.375 67.061z" fill="#fdca00"/></g><g><path d="m256 370.096c-16.569 0-30-13.431-30-30 0-16.567 13.429-29.998 29.996-30-.002 0-.003 0-.005 0-30.623 0-30.623 20-61.246 20-30.624 0-30.624-20-61.249-20s-30.625 20-61.25 20c-29.294 0-30.585-18.288-57.445-19.877 4.22 23.711 11.859 46.236 22.375 67.061l27.227 33.768h191.597z" fill="#feac00"/></g><g><path d="m89.962 447.142 46.953 19.092h238.172l46.95-19.091c21.513-19.841 39.466-43.484 52.788-69.866-9.456 5.734-16.842 12.819-35.078 12.819-30.627 0-30.627-20-61.254-20-30.626 0-30.626 20-61.251 20s-30.625-20-61.249-20c-30.623 0-30.623 20-61.246 20-30.624 0-30.624-20-61.249-20s-30.625 20-61.25 20c-18.231 0-25.617-7.083-35.07-12.816 13.32 26.38 31.273 50.022 52.784 69.862z" fill="#ffe400"/></g><g><path d="m256 430.096c-16.569 0-30-13.431-30-30 0-16.567 13.429-29.998 29.996-30-.002 0-.003 0-.005 0-30.623 0-30.623 20-61.246 20-30.624 0-30.624-20-61.249-20s-30.625 20-61.25 20c-18.231 0-25.617-7.083-35.07-12.816 13.321 26.38 31.274 50.022 52.785 69.862l46.953 19.092h119.086z" fill="#fdca00"/></g><g><path d="m422.036 447.144c-14.7-5.562-20.327-17.048-43.543-17.048-30.626 0-30.626 20-61.251 20s-30.625-20-61.249-20c-30.623 0-30.623 20-61.246 20-30.624 0-30.624-20-61.249-20-23.212 0-28.839 11.484-43.534 17.046 43.651 40.261 101.968 64.858 166.036 64.858 64.067 0 122.383-24.596 166.036-64.856z" fill="#fff442"/></g><g><path d="m89.962 447.142c22.9 21.12 49.84 37.92 79.524 49.13-2.996-4.668-4.741-10.217-4.741-16.176 0-16.569 13.432-30 30-30-30.624 0-30.624-20-61.249-20-23.212 0-28.839 11.484-43.534 17.046z" fill="#ffe400"/></g></g></svg>